<?xml version="1.0" encoding="UTF-8"?>
<!DOCTYPE svg PUBLIC "-//W3C//DTD SVG 1.1//EN" "http://www.w3.org/Graphics/SVG/1.1/DTD/svg11.dtd">
<svg xmlns="http://www.w3.org/2000/svg" version="1.1" width="64px" height="64px" style="shape-rendering:geometricPrecision; text-rendering:geometricPrecision; image-rendering:optimizeQuality; fill-rule:evenodd; clip-rule:evenodd" xmlns:xlink="http://www.w3.org/1999/xlink">
<g><path style="opacity:0.747" fill="#000000" d="M 0.5,-0.5 C 1.5,-0.5 2.5,-0.5 3.5,-0.5C 23.1667,19.8333 43.1667,39.8333 63.5,59.5C 63.5,60.5 63.5,61.5 63.5,62.5C 62.8333,62.5 62.5,62.8333 62.5,63.5C 61.5,63.5 60.5,63.5 59.5,63.5C 39.8333,43.1667 19.8333,23.1667 -0.5,3.5C -0.5,2.5 -0.5,1.5 -0.5,0.5C 0.166667,0.5 0.5,0.166667 0.5,-0.5 Z"/></g>
<g><path style="opacity:0.913" fill="#000000" d="M 63.5,14.5 C 63.5,17.8333 63.5,21.1667 63.5,24.5C 60.3416,28.4067 56.1749,30.7401 51,31.5C 49.7138,34.4055 48.7138,37.4055 48,40.5C 41.8333,34.3333 35.6667,28.1667 29.5,22C 31.3289,21.7265 32.8289,20.8932 34,19.5C 36.7442,13.0905 39.5775,6.75714 42.5,0.5C 44.5,3.83333 46.5,7.16667 48.5,10.5C 53.4693,11.9921 58.4693,13.3255 63.5,14.5 Z"/></g>
<g><path style="opacity:0.906" fill="#000000" d="M -0.5,10.5 C 3.33155,13.4989 6.66489,16.9989 9.5,21C 11.1667,21.3333 12.8333,21.6667 14.5,22C 24.6667,32.1667 34.8333,42.3333 45,52.5C 46.8376,59.3215 44.3376,61.8215 37.5,60C 35.0862,55.1705 32.4196,50.5038 29.5,46C 24.5,45.3333 19.5,45.3333 14.5,46C 11.5804,50.5038 8.91376,55.1705 6.5,60C 4.19018,60.4966 1.85684,60.6633 -0.5,60.5C -0.5,54.5 -0.5,48.5 -0.5,42.5C 1.02005,39.6148 2.02005,36.4481 2.5,33C 1.8119,27.6363 0.811905,22.4696 -0.5,17.5C -0.5,15.1667 -0.5,12.8333 -0.5,10.5 Z"/></g>
</svg>
